<svg xmlns="http://www.w3.org/2000/svg"
     width="179.30" height="40.00"
     viewBox="0 -970 5648 1260">
  <!-- nathanlane. — Sora ExtraBold 800, letter-spacing -0.04em -->
  <g transform="scale(1,-1)">
    <path transform="translate(0,0)" fill="#0D0D0D" d="M66 0V552H210V315H202Q202 401 224.0 457.5Q246 514 289.5 542.0Q333 570 395 570H403Q497 570 548.5 507.5Q600 445 600 316V0H418V321Q418 359 395.5 383.5Q373 408 334 408Q295 408 271.5 383.5Q248 359 248 319V0Z"/>
    <path transform="translate(616,0)" fill="#0D0D0D" d="M400 0V162H370V335Q370 373 352.5 391.5Q335 410 295 410Q276 410 239.0 409.0Q202 408 161.0 406.0Q120 404 86 402V554Q110 556 143.0 558.0Q176 560 211.5 561.0Q247 562 277 562Q362 562 421.5 537.0Q481 512 512.5 462.0Q544 412 544 335V0ZM225 -14Q167 -14 122.0 7.0Q77 28 51.5 67.5Q26 107 26 162Q26 224 59.0 262.5Q92 301 150.0 319.0Q208 337 283 337H390V243H283Q246 243 226.0 224.5Q206 206 206 175Q206 145 226.0 126.5Q246 108 283 108Q307 108 325.5 116.5Q344 125 356.0 146.0Q368 167 370 204L412 164Q407 107 384.5 67.5Q362 28 322.5 7.0Q283 -14 225 -14Z"/>
    <path transform="translate(1176,0)" fill="#0D0D0D" d="M329 -8Q239 -8 185.5 14.0Q132 36 108.0 87.0Q84 138 84 225L85 696H253L252 220Q252 183 271.5 163.5Q291 144 328 144H404V-8ZM4 420V552H404V420Z"/>
    <path transform="translate(1572,0)" fill="#0D0D0D" d="M66 0V730H248V314H224Q224 398 245.0 455.0Q266 512 306.5 541.0Q347 570 407 570H415Q505 570 552.5 505.0Q600 440 600 314V0H418V321Q418 359 395.0 383.5Q372 408 334 408Q296 408 272.0 383.5Q248 359 248 319V0Z"/>
    <path transform="translate(2188,0)" fill="#0D0D0D" d="M400 0V162H370V335Q370 373 352.5 391.5Q335 410 295 410Q276 410 239.0 409.0Q202 408 161.0 406.0Q120 404 86 402V554Q110 556 143.0 558.0Q176 560 211.5 561.0Q247 562 277 562Q362 562 421.5 537.0Q481 512 512.5 462.0Q544 412 544 335V0ZM225 -14Q167 -14 122.0 7.0Q77 28 51.5 67.5Q26 107 26 162Q26 224 59.0 262.5Q92 301 150.0 319.0Q208 337 283 337H390V243H283Q246 243 226.0 224.5Q206 206 206 175Q206 145 226.0 126.5Q246 108 283 108Q307 108 325.5 116.5Q344 125 356.0 146.0Q368 167 370 204L412 164Q407 107 384.5 67.5Q362 28 322.5 7.0Q283 -14 225 -14Z"/>
    <path transform="translate(2748,0)" fill="#0D0D0D" d="M66 0V552H210V315H202Q202 401 224.0 457.5Q246 514 289.5 542.0Q333 570 395 570H403Q497 570 548.5 507.5Q600 445 600 316V0H418V321Q418 359 395.5 383.5Q373 408 334 408Q295 408 271.5 383.5Q248 359 248 319V0Z"/>
    <path transform="translate(3364,0)" fill="#0D0D0D" opacity="0.35" d="M74 0V730H256V0ZM12 598V730H256V598Z"/>
    <path transform="translate(3648,0)" fill="#0D0D0D" opacity="0.35" d="M400 0V162H370V335Q370 373 352.5 391.5Q335 410 295 410Q276 410 239.0 409.0Q202 408 161.0 406.0Q120 404 86 402V554Q110 556 143.0 558.0Q176 560 211.5 561.0Q247 562 277 562Q362 562 421.5 537.0Q481 512 512.5 462.0Q544 412 544 335V0ZM225 -14Q167 -14 122.0 7.0Q77 28 51.5 67.5Q26 107 26 162Q26 224 59.0 262.5Q92 301 150.0 319.0Q208 337 283 337H390V243H283Q246 243 226.0 224.5Q206 206 206 175Q206 145 226.0 126.5Q246 108 283 108Q307 108 325.5 116.5Q344 125 356.0 146.0Q368 167 370 204L412 164Q407 107 384.5 67.5Q362 28 322.5 7.0Q283 -14 225 -14Z"/>
    <path transform="translate(4208,0)" fill="#0D0D0D" opacity="0.35" d="M66 0V552H210V315H202Q202 401 224.0 457.5Q246 514 289.5 542.0Q333 570 395 570H403Q497 570 548.5 507.5Q600 445 600 316V0H418V321Q418 359 395.5 383.5Q373 408 334 408Q295 408 271.5 383.5Q248 359 248 319V0Z"/>
    <path transform="translate(4824,0)" fill="#0D0D0D" opacity="0.35" d="M325 -20Q255 -20 201.0 4.0Q147 28 110.0 69.0Q73 110 53.5 161.0Q34 212 34 266V286Q34 342 53.5 393.5Q73 445 109.5 485.0Q146 525 199.0 548.5Q252 572 319 572Q408 572 470.0 532.0Q532 492 565.0 426.5Q598 361 598 284V226H110V324H493L430 280Q430 327 417.5 359.5Q405 392 380.5 409.0Q356 426 319 426Q283 426 256.5 409.5Q230 393 216.0 359.5Q202 326 202 275Q202 229 215.0 195.5Q228 162 255.0 144.0Q282 126 325 126Q363 126 387.5 139.0Q412 152 422 174H588Q576 118 540.5 74.0Q505 30 450.5 5.0Q396 -20 325 -20Z"/>
    <path transform="translate(5412,0)" fill="#0D0D0D" opacity="0.35" d="M40 0V198H236V0Z"/>
  </g>
</svg>